<?xml version="1.0" encoding="UTF-8" standalone="no"?>
<!-- Created with Inkscape (http://www.inkscape.org/) -->

<svg
   xmlns:dc="http://purl.org/dc/elements/1.1/"
   xmlns:cc="http://creativecommons.org/ns#"
   xmlns:rdf="http://www.w3.org/1999/02/22-rdf-syntax-ns#"
   xmlns:svg="http://www.w3.org/2000/svg"
   xmlns="http://www.w3.org/2000/svg"
   xmlns:sodipodi="http://sodipodi.sourceforge.net/DTD/sodipodi-0.dtd"
   xmlns:inkscape="http://www.inkscape.org/namespaces/inkscape"
   width="342.4798"
   height="174.62418"
   id="svg2"
   version="1.1"
   inkscape:version="0.48.5 r10040"
   sodipodi:docname="doc-fig-1.svg">
  <defs
     id="defs4" />
  <sodipodi:namedview
     id="base"
     pagecolor="#ffffff"
     bordercolor="#666666"
     borderopacity="1.0"
     inkscape:pageopacity="0.0"
     inkscape:pageshadow="2"
     inkscape:zoom="1.4694215"
     inkscape:cx="186.35914"
     inkscape:cy="102.58676"
     inkscape:document-units="px"
     inkscape:current-layer="layer1"
     showgrid="false"
     fit-margin-top="0"
     fit-margin-left="0"
     fit-margin-right="0"
     fit-margin-bottom="0"
     inkscape:window-width="1280"
     inkscape:window-height="747"
     inkscape:window-x="369"
     inkscape:window-y="1106"
     inkscape:window-maximized="1" />
  <metadata
     id="metadata7">
    <rdf:RDF>
      <cc:Work
         rdf:about="">
        <dc:format>image/svg+xml</dc:format>
        <dc:type
           rdf:resource="http://purl.org/dc/dcmitype/StillImage" />
        <dc:title />
      </cc:Work>
    </rdf:RDF>
  </metadata>
  <g
     inkscape:label="Layer 1"
     inkscape:groupmode="layer"
     id="layer1"
     transform="translate(-118.73874,-249.63009)">
    <rect
       style="fill:none;stroke:#0c1a29;stroke-width:4.89146756999999965;stroke-miterlimit:4;stroke-opacity:1;stroke-dasharray:none"
       id="rect2985"
       width="78.391838"
       height="48.448822"
       x="144.54155"
       y="361.45026"
       rx="4.8914676"
       ry="4.8914676" />
    <g
       transform="matrix(0.35059346,0,0,0.35059346,129.29044,199.16178)"
       style="font-size:9px;font-style:normal;font-weight:normal;line-height:125%;letter-spacing:0px;word-spacing:0px;fill:#0c1a29;fill-opacity:1;stroke:none;font-family:Sans"
       id="flowRoot3755">
      <path
         inkscape:connector-curvature="0"
         d="m 90.86125,531.94644 c 2.175976,1.66401 3.263975,3.98401 3.264,6.96 -0.03202,1.05601 0.03198,2 0.192,2.832 0.831974,0.256 1.391973,0.816 1.68,1.68 0.287972,0.832 0.159973,1.616 -0.384,2.352 -0.544026,0.736 -1.328026,1.104 -2.352,1.104 l -0.048,0 c -1.440023,0 -2.576022,-0.736 -3.408,-2.208 -0.67202,-1.408 -1.00802,-3.328 -1.008,-5.76 -0.06402,-1.47199 -0.736019,-2.62399 -2.016,-3.456 -0.832017,-0.54399 -1.728016,-0.92799 -2.688,-1.152 l -5.664,0 0,10.416 c -1e-5,0.736 -0.272009,1.36 -0.816,1.872 -0.512008,0.512 -1.136008,0.768 -1.872,0.768 -0.736006,0 -1.360006,-0.256 -1.872,-0.768 -0.512005,-0.512 -0.768004,-1.136 -0.768,-1.872 l 0,-28.32 c -4e-6,-0.73597 0.255995,-1.35997 0.768,-1.872 0.511994,-0.51197 1.135994,-0.76797 1.872,-0.768 l 8.592,0 c 2.847982,3e-5 5.263979,1.00803 7.248,3.024 2.015975,2.01603 3.023974,4.52802 3.024,7.536 -2.6e-5,3.00802 -1.248025,5.55202 -3.744,7.632 m -6.528,-2.976 c 1.375983,2e-5 2.543982,-0.47998 3.504,-1.44 0.95998,-0.95998 1.43998,-2.11198 1.44,-3.456 -2e-5,-1.37598 -0.48002,-2.54398 -1.44,-3.504 -0.960018,-0.99197 -2.128017,-1.48797 -3.504,-1.488 l -5.904,0 0,9.888 5.904,0"
         style="font-size:48px;font-variant:normal;font-weight:bold;font-stretch:normal;text-align:center;text-anchor:middle;fill:#0c1a29;font-family:Quicksand;-inkscape-font-specification:Quicksand Bold;fill-opacity:1"
         id="path3104" />
      <path
         inkscape:connector-curvature="0"
         d="m 124.84525,534.73044 c -3e-5,0.70401 -0.24003,1.28001 -0.72,1.728 -0.44802,0.41601 -1.05602,0.62401 -1.824,0.624 l -15.264,0 c 0.28799,1.37601 0.83199,2.43201 1.632,3.168 1.02399,1.184 2.51199,1.904 4.464,2.16 1.98398,0.224 3.69598,-0.176 5.136,-1.2 0.47998,-0.512 1.11998,-0.76799 1.92,-0.768 0.79998,10e-6 1.35998,0.208 1.68,0.624 0.89598,0.992 0.89598,2.032 0,3.12 -2.30402,2.112 -5.13602,3.168 -8.496,3.168 -3.32801,-0.032 -6.12801,-1.216 -8.4,-3.552 -2.24,-2.336 -3.376,-5.15199 -3.408,-8.448 0.032,-3.29599 1.168,-6.11198 3.408,-8.448 2.27199,-2.36798 5.00799,-3.55198 8.208,-3.552 3.19998,2e-5 5.88798,1.05602 8.064,3.168 2.20798,2.08002 3.40797,4.73601 3.6,7.968 l 0,0.24 m -11.568,-6.816 c -1.85601,0.096 -3.34401,0.67202 -4.464,1.728 -1.12001,1.05601 -1.79201,2.17601 -2.016,3.36 l 13.584,0 c -0.28802,-1.11999 -1.07202,-2.20799 -2.352,-3.264 -1.24802,-1.05598 -2.83202,-1.66398 -4.752,-1.824"
         style="font-size:48px;font-variant:normal;font-weight:bold;font-stretch:normal;text-align:center;text-anchor:middle;fill:#0c1a29;font-family:Quicksand;-inkscape-font-specification:Quicksand Bold;fill-opacity:1"
         id="path3106" />
      <path
         inkscape:connector-curvature="0"
         d="m 141.37525,547.35444 c -3.23201,0 -5.95201,-1.168 -8.16,-3.504 -2.176,-2.336 -3.264,-5.15199 -3.264,-8.448 0,-3.32799 1.088,-6.15998 3.264,-8.496 2.20799,-2.36798 4.92799,-3.55198 8.16,-3.552 2.27198,2e-5 4.39998,0.70402 6.384,2.112 0.15998,-0.60798 0.46398,-1.10398 0.912,-1.488 0.44798,-0.41598 0.99198,-0.62398 1.632,-0.624 0.67198,2e-5 1.24798,0.25602 1.728,0.768 0.51198,0.51202 0.76798,1.12002 0.768,1.824 l 0,18.864 c -2e-5,0.704 -0.25602,1.312 -0.768,1.824 -0.48002,0.48 -1.05602,0.72 -1.728,0.72 -0.64002,0 -1.18402,-0.192 -1.632,-0.576 -0.44802,-0.384 -0.75202,-0.88 -0.912,-1.488 -1.95202,1.376 -4.08002,2.064 -6.384,2.064 m -6.288,-11.952 c -1e-5,1.92001 0.57599,3.53601 1.728,4.848 1.18399,1.312 2.68799,1.968 4.512,1.968 1.85598,0 3.37598,-0.656 4.56,-1.968 1.21598,-1.31199 1.82398,-2.92799 1.824,-4.848 -2e-5,-1.91999 -0.60802,-3.55199 -1.824,-4.896 -1.21602,-1.34398 -2.73602,-2.01598 -4.56,-2.016 -1.79201,2e-5 -3.28001,0.67202 -4.464,2.016 -1.18401,1.31201 -1.77601,2.94401 -1.776,4.896"
         style="font-size:48px;font-variant:normal;font-weight:bold;font-stretch:normal;text-align:center;text-anchor:middle;fill:#0c1a29;font-family:Quicksand;-inkscape-font-specification:Quicksand Bold;fill-opacity:1"
         id="path3108" />
      <path
         inkscape:connector-curvature="0"
         d="m 183.958,544.76244 c -3e-5,0.704 -0.25603,1.312 -0.768,1.824 -0.51202,0.512 -1.10402,0.768 -1.776,0.768 -0.67202,0 -1.24802,-0.192 -1.728,-0.576 -0.44802,-0.416 -0.73602,-0.912 -0.864,-1.488 -2.01602,1.376 -4.19202,2.064 -6.528,2.064 -3.23201,0 -5.98401,-1.168 -8.256,-3.504 -2.272,-2.368 -3.408,-5.18399 -3.408,-8.448 0,-3.29599 1.136,-6.12798 3.408,-8.496 2.27199,-2.36798 5.02399,-3.55198 8.256,-3.552 2.36798,2e-5 4.51198,0.67202 6.432,2.016 l 0,-9.024 c -2e-5,-0.70397 0.25598,-1.31197 0.768,-1.824 0.51198,-0.51197 1.11998,-0.76797 1.824,-0.768 0.73598,3e-5 1.35998,0.25603 1.872,0.768 0.51197,0.51203 0.76797,1.12003 0.768,1.824 l 0,28.416 m -11.664,-2.64 c 1.75998,0 3.26398,-0.656 4.512,-1.968 1.27998,-1.34399 1.91998,-2.92799 1.92,-4.752 -2e-5,-1.85599 -0.62402,-3.45599 -1.872,-4.8 -1.24802,-1.34398 -2.76802,-2.01598 -4.56,-2.016 -1.79201,2e-5 -3.31201,0.67202 -4.56,2.016 -1.24801,1.34401 -1.87201,2.94401 -1.872,4.8 -1e-5,1.82401 0.62399,3.40801 1.872,4.752 1.27999,1.312 2.79999,1.968 4.56,1.968"
         style="font-size:48px;font-variant:normal;font-weight:bold;font-stretch:normal;text-align:center;text-anchor:middle;fill:#0c1a29;font-family:Quicksand;-inkscape-font-specification:Quicksand Bold;fill-opacity:1"
         id="path3110" />
      <path
         inkscape:connector-curvature="0"
         d="m 215.5015,534.73044 c -3e-5,0.70401 -0.24003,1.28001 -0.72,1.728 -0.44802,0.41601 -1.05602,0.62401 -1.824,0.624 l -15.264,0 c 0.28799,1.37601 0.83199,2.43201 1.632,3.168 1.02399,1.184 2.51199,1.904 4.464,2.16 1.98398,0.224 3.69598,-0.176 5.136,-1.2 0.47998,-0.512 1.11998,-0.76799 1.92,-0.768 0.79998,10e-6 1.35998,0.208 1.68,0.624 0.89598,0.992 0.89598,2.032 0,3.12 -2.30402,2.112 -5.13602,3.168 -8.496,3.168 -3.32801,-0.032 -6.12801,-1.216 -8.4,-3.552 -2.24,-2.336 -3.376,-5.15199 -3.408,-8.448 0.032,-3.29599 1.168,-6.11198 3.408,-8.448 2.27199,-2.36798 5.00799,-3.55198 8.208,-3.552 3.19998,2e-5 5.88798,1.05602 8.064,3.168 2.20798,2.08002 3.40797,4.73601 3.6,7.968 l 0,0.24 m -11.568,-6.816 c -1.85601,0.096 -3.34401,0.67202 -4.464,1.728 -1.12001,1.05601 -1.79201,2.17601 -2.016,3.36 l 13.584,0 c -0.28802,-1.11999 -1.07202,-2.20799 -2.352,-3.264 -1.24802,-1.05598 -2.83202,-1.66398 -4.752,-1.824"
         style="font-size:48px;font-variant:normal;font-weight:bold;font-stretch:normal;text-align:center;text-anchor:middle;fill:#0c1a29;font-family:Quicksand;-inkscape-font-specification:Quicksand Bold;fill-opacity:1"
         id="path3112" />
      <path
         inkscape:connector-curvature="0"
         d="m 228.3355,526.23444 c 0.73599,-0.86398 1.74399,-1.55198 3.024,-2.064 1.27999,-0.54398 2.44798,-0.79998 3.504,-0.768 1.05598,2e-5 1.82398,0.24002 2.304,0.72 0.51198,0.48002 0.76798,1.07202 0.768,1.776 -2e-5,0.67202 -0.25602,1.26402 -0.768,1.776 -0.48002,0.51202 -1.07202,0.76802 -1.776,0.768 -2.97601,2e-5 -5.32801,2.41601 -7.056,7.248 l 0,9.12 c -1e-5,0.704 -0.25601,1.312 -0.768,1.824 -0.51201,0.48 -1.13601,0.72 -1.872,0.72 -0.70401,0 -1.31201,-0.24 -1.824,-0.72 -0.48,-0.512 -0.72,-1.12 -0.72,-1.824 l 0,-18.912 c 0,-0.70398 0.24,-1.29598 0.72,-1.776 0.51199,-0.47998 1.11999,-0.71998 1.824,-0.72 0.73599,2e-5 1.35999,0.24002 1.872,0.72 0.51199,0.48002 0.76799,1.07202 0.768,1.776 l 0,0.336"
         style="font-size:48px;font-variant:normal;font-weight:bold;font-stretch:normal;text-align:center;text-anchor:middle;fill:#0c1a29;font-family:Quicksand;-inkscape-font-specification:Quicksand Bold;fill-opacity:1"
         id="path3114" />
    </g>
    <rect
       style="fill:none;stroke:#0c1a29;stroke-width:4.89146756999999965;stroke-miterlimit:4;stroke-opacity:1;stroke-dasharray:none"
       id="rect2985-7"
       width="78.391838"
       height="48.448822"
       x="357.0239"
       y="361.45026"
       rx="4.8914676"
       ry="4.8914676" />
    <g
       transform="matrix(0.35059346,0,0,0.35059346,341.92325,199.66576)"
       style="font-size:9px;font-style:normal;font-weight:normal;line-height:125%;letter-spacing:0px;word-spacing:0px;fill:#0c1a29;fill-opacity:1;stroke:none;font-family:Sans"
       id="flowRoot3755-4">
      <path
         inkscape:connector-curvature="0"
         d="m 94.869625,546.87444 -0.384,0.288 -0.048,0 c -0.09602,0 -0.240018,0.048 -0.432,0.144 l -0.144,0 c -0.09602,0.032 -0.256018,0.048 -0.48,0.048 -0.192017,0 -0.336017,-0.016 -0.432,-0.048 l -0.144,0 c -0.192017,-0.064 -0.304017,-0.096 -0.336,-0.096 -0.03202,-0.032 -0.09602,-0.064 -0.192,-0.096 -0.06402,-0.032 -0.176016,-0.112 -0.336,-0.24 l -0.048,0 c -0.128016,-0.096 -0.256016,-0.208 -0.384,-0.336 -0.128016,-0.16 -0.224016,-0.272 -0.288,-0.336 l 0,-0.048 c -0.03202,-0.032 -0.08002,-0.096 -0.144,-0.192 -0.03202,-0.128 -0.06401,-0.208 -0.096,-0.24 l -11.808,-27.984 c -0.256003,-0.67197 -0.256003,-1.34397 0,-2.016 0.287996,-0.67197 0.767996,-1.13597 1.44,-1.392 0.639995,-0.28797 1.295994,-0.28797 1.968,0 0.703992,0.25603 1.183992,0.72003 1.44,1.392 l 9.408,22.224 6.192,-14.736 c 0.447975,-1.08798 1.263975,-1.63198 2.448005,-1.632 1.21597,2e-5 2.06397,0.54402 2.544,1.632 l 6.19199,14.736 9.36001,-22.224 c 0.28795,-0.67197 0.76795,-1.13597 1.44,-1.392 0.67195,-0.28797 1.34395,-0.28797 2.01599,0 0.67196,0.25603 1.13596,0.73603 1.39201,1.44 0.28795,0.67203 0.28795,1.32803 0,1.968 l -11.76,27.984 c -0.064,0.256 -0.24004,0.512 -0.528,0.768 -4e-5,0.032 -0.016,0.08 -0.048,0.144 -0.12804,0.064 -0.24004,0.144 -0.33601,0.24 l -0.048,0 -0.43199,0.288 -0.048,0 c -0.032,0 -0.064,0.016 -0.096,0.048 -0.032,0 -0.14403,0.032 -0.33599,0.096 l -0.096,0 c -0.096,0.032 -0.25603,0.048 -0.48,0.048 -0.19203,0 -0.33603,-0.016 -0.43199,-0.048 l -0.144,0 c -0.19204,-0.064 -0.30404,-0.096 -0.336,-0.096 -0.032,-0.032 -0.096,-0.048 -0.192,-0.048 -0.064,-0.032 -0.17604,-0.128 -0.33601,-0.288 l -0.048,0 c -0.28804,-0.192 -0.49604,-0.416 -0.62401,-0.672 -0.12803,-0.064 -0.22403,-0.224 -0.28799,-0.48 l -6.288,-14.88 -6.288005,14.88 c -0.03202,0.096 -0.09602,0.24 -0.192,0.432 l -0.336,0.336 c -2e-5,0.032 -0.01602,0.08 -0.048,0.144 -0.06402,0.032 -0.160019,0.112 -0.288,0.24 l -0.096,0"
         style="font-size:48px;font-variant:normal;font-weight:bold;font-stretch:normal;text-align:center;text-anchor:middle;fill:#0c1a29;font-family:Quicksand;-inkscape-font-specification:Quicksand Bold;fill-opacity:1"
         id="path3091" />
      <path
         inkscape:connector-curvature="0"
         d="m 138.28862,526.23444 c 0.73599,-0.86398 1.74399,-1.55198 3.024,-2.064 1.27999,-0.54398 2.44799,-0.79998 3.504,-0.768 1.05599,2e-5 1.82399,0.24002 2.304,0.72 0.51199,0.48002 0.76799,1.07202 0.768,1.776 -1e-5,0.67202 -0.25601,1.26402 -0.768,1.776 -0.48001,0.51202 -1.07201,0.76802 -1.776,0.768 -2.97601,2e-5 -5.32801,2.41601 -7.056,7.248 l 0,9.12 c 0,0.704 -0.256,1.312 -0.768,1.824 -0.512,0.48 -1.136,0.72 -1.872,0.72 -0.704,0 -1.312,-0.24 -1.824,-0.72 -0.48,-0.512 -0.72,-1.12 -0.72,-1.824 l 0,-18.912 c 0,-0.70398 0.24,-1.29598 0.72,-1.776 0.512,-0.47998 1.12,-0.71998 1.824,-0.72 0.736,2e-5 1.36,0.24002 1.872,0.72 0.512,0.48002 0.768,1.07202 0.768,1.776 l 0,0.336"
         style="font-size:48px;font-variant:normal;font-weight:bold;font-stretch:normal;text-align:center;text-anchor:middle;fill:#0c1a29;font-family:Quicksand;-inkscape-font-specification:Quicksand Bold;fill-opacity:1"
         id="path3093" />
      <path
         inkscape:connector-curvature="0"
         d="m 154.96637,524.17044 c 0.512,-0.51198 1.136,-0.76798 1.872,-0.768 0.736,2e-5 1.344,0.25602 1.824,0.768 0.512,0.48002 0.768,1.10402 0.768,1.872 l 0,18.72 c 0,0.736 -0.256,1.36 -0.768,1.872 -0.48,0.48 -1.088,0.72 -1.824,0.72 -0.704,0 -1.312,-0.256 -1.824,-0.768 -0.512,-0.512 -0.768,-1.12 -0.768,-1.824 l 0,-18.72 c 0,-0.76798 0.24,-1.39198 0.72,-1.872 m 4.464,-7.824 0,1.008 c 0,0.73603 -0.256,1.36003 -0.768,1.872 -0.48,0.51203 -1.088,0.76803 -1.824,0.768 -0.704,3e-5 -1.312,-0.25597 -1.824,-0.768 -0.512,-0.51197 -0.768,-1.13597 -0.768,-1.872 l 0,-1.008 c 0,-0.70397 0.256,-1.31197 0.768,-1.824 0.512,-0.51197 1.12,-0.76797 1.824,-0.768 0.736,3e-5 1.344,0.25603 1.824,0.768 0.512,0.48003 0.768,1.08803 0.768,1.824"
         style="font-size:48px;font-variant:normal;font-weight:bold;font-stretch:normal;text-align:center;text-anchor:middle;fill:#0c1a29;font-family:Quicksand;-inkscape-font-specification:Quicksand Bold;fill-opacity:1"
         id="path3095" />
      <path
         inkscape:connector-curvature="0"
         d="m 175.81037,523.35444 c 0.73599,2e-5 1.35999,0.25602 1.872,0.768 0.54399,0.51202 0.81599,1.13602 0.816,1.872 -1e-5,0.70402 -0.27201,1.32802 -0.816,1.872 -0.51201,0.51202 -1.13601,0.76802 -1.872,0.768 l -1.2,0 0,13.392 c 0.73599,0 1.35999,0.272 1.872,0.816 0.51199,0.512 0.76799,1.136 0.768,1.872 -1e-5,0.736 -0.25601,1.36 -0.768,1.872 -0.51201,0.512 -1.13601,0.768 -1.872,0.768 -1.472,0 -2.736,-0.512 -3.792,-1.536 -1.024,-1.056 -1.536,-2.32 -1.536,-3.792 l 0,-13.392 -1.392,0 c -0.736,2e-5 -1.36,-0.25598 -1.872,-0.768 -0.512,-0.51198 -0.768,-1.13598 -0.768,-1.872 0,-0.73598 0.256,-1.35998 0.768,-1.872 0.512,-0.51198 1.136,-0.76798 1.872,-0.768 l 1.392,0 0,-6.96 c 0,-0.73597 0.256,-1.35997 0.768,-1.872 0.544,-0.51197 1.184,-0.76797 1.92,-0.768 0.736,3e-5 1.35999,0.25603 1.872,0.768 0.51199,0.51203 0.76799,1.13603 0.768,1.872 l 0,6.96 1.2,0"
         style="font-size:48px;font-variant:normal;font-weight:bold;font-stretch:normal;text-align:center;text-anchor:middle;fill:#0c1a29;font-family:Quicksand;-inkscape-font-specification:Quicksand Bold;fill-opacity:1"
         id="path3097" />
      <path
         inkscape:connector-curvature="0"
         d="m 208.51712,534.73044 c -2e-5,0.70401 -0.24002,1.28001 -0.72,1.728 -0.44802,0.41601 -1.05602,0.62401 -1.824,0.624 l -15.264,0 c 0.288,1.37601 0.832,2.43201 1.632,3.168 1.02399,1.184 2.51199,1.904 4.464,2.16 1.98399,0.224 3.69599,-0.176 5.136,-1.2 0.47999,-0.512 1.11998,-0.76799 1.92001,-0.768 0.79997,10e-6 1.35997,0.208 1.67999,0.624 0.89598,0.992 0.89598,2.032 0,3.12 -2.30402,2.112 -5.13601,3.168 -8.496,3.168 -3.32801,-0.032 -6.128,-1.216 -8.4,-3.552 -2.24,-2.336 -3.376,-5.15199 -3.408,-8.448 0.032,-3.29599 1.168,-6.11198 3.408,-8.448 2.272,-2.36798 5.00799,-3.55198 8.208,-3.552 3.19999,2e-5 5.88798,1.05602 8.064,3.168 2.20798,2.08002 3.40798,4.73601 3.6,7.968 l 0,0.24 m -11.568,-6.816 c -1.85601,0.096 -3.34401,0.67202 -4.464,1.728 -1.12,1.05601 -1.792,2.17601 -2.016,3.36 l 13.584,0 c -0.28802,-1.11999 -1.07202,-2.20799 -2.352,-3.264 -1.24801,-1.05598 -2.83201,-1.66398 -4.752,-1.824"
         style="font-size:48px;font-variant:normal;font-weight:bold;font-stretch:normal;text-align:center;text-anchor:middle;fill:#0c1a29;font-family:Quicksand;-inkscape-font-specification:Quicksand Bold;fill-opacity:1"
         id="path3099" />
      <path
         inkscape:connector-curvature="0"
         d="m 221.35112,526.23444 c 0.73599,-0.86398 1.74399,-1.55198 3.024,-2.064 1.27999,-0.54398 2.44799,-0.79998 3.504,-0.768 1.05599,2e-5 1.82399,0.24002 2.304,0.72 0.51199,0.48002 0.76799,1.07202 0.768,1.776 -1e-5,0.67202 -0.25601,1.26402 -0.768,1.776 -0.48001,0.51202 -1.07201,0.76802 -1.776,0.768 -2.97601,2e-5 -5.32801,2.41601 -7.056,7.248 l 0,9.12 c 0,0.704 -0.256,1.312 -0.768,1.824 -0.512,0.48 -1.136,0.72 -1.872,0.72 -0.704,0 -1.312,-0.24 -1.824,-0.72 -0.48,-0.512 -0.72,-1.12 -0.72,-1.824 l 0,-18.912 c 0,-0.70398 0.24,-1.29598 0.72,-1.776 0.512,-0.47998 1.12,-0.71998 1.824,-0.72 0.736,2e-5 1.36,0.24002 1.872,0.72 0.512,0.48002 0.768,1.07202 0.768,1.776 l 0,0.336"
         style="font-size:48px;font-variant:normal;font-weight:bold;font-stretch:normal;text-align:center;text-anchor:middle;fill:#0c1a29;font-family:Quicksand;-inkscape-font-specification:Quicksand Bold;fill-opacity:1"
         id="path3101" />
    </g>
    <rect
       style="fill:#0c1a29;fill-opacity:1;stroke:#0c1a29;stroke-width:4.89146756999999965;stroke-miterlimit:4;stroke-opacity:1;stroke-dasharray:none"
       id="rect2985-9"
       width="78.391838"
       height="48.448822"
       x="250.78271"
       y="263.98529"
       rx="4.8914676"
       ry="4.8914676" />
    <g
       transform="matrix(0.35059346,0,0,0.35059346,235.94228,91.657731)"
       style="font-size:9px;font-style:normal;font-weight:normal;line-height:125%;letter-spacing:0px;word-spacing:0px;fill:#ffffff;fill-opacity:1;stroke:none;font-family:Sans"
       id="flowRoot3755-8">
      <path
         inkscape:connector-curvature="0"
         d="m 110.50487,544.76244 c -2e-5,0.704 -0.25602,1.312 -0.768,1.824 -0.51202,0.512 -1.10402,0.768 -1.77599,0.768 -0.67203,0 -1.24803,-0.192 -1.728,-0.576 -0.44803,-0.416 -0.73603,-0.912 -0.864,-1.488 -2.01602,1.376 -4.19202,2.064 -6.528005,2.064 -3.232011,0 -5.984009,-1.168 -8.256,-3.504 -2.272004,-2.368 -3.408003,-5.18399 -3.408,-8.448 -3e-6,-3.29599 1.135996,-6.12798 3.408,-8.496 2.271991,-2.36798 5.023989,-3.55198 8.256,-3.552 2.367985,2e-5 4.511985,0.67202 6.432005,2.016 l 0,-9.024 c -3e-5,-0.70397 0.25597,-1.31197 0.768,-1.824 0.51197,-0.51197 1.11997,-0.76797 1.82399,-0.768 0.73598,3e-5 1.35998,0.25603 1.872,0.768 0.51198,0.51203 0.76798,1.12003 0.768,1.824 l 0,28.416 m -11.663995,-2.64 c 1.759985,0 3.263985,-0.656 4.511995,-1.968 1.27998,-1.34399 1.91998,-2.92799 1.92001,-4.752 -3e-5,-1.85599 -0.62403,-3.45599 -1.872,-4.8 -1.24802,-1.34398 -2.76802,-2.01598 -4.560005,-2.016 -1.792013,2e-5 -3.312011,0.67202 -4.56,2.016 -1.248009,1.34401 -1.872008,2.94401 -1.872,4.8 -8e-6,1.82401 0.623991,3.40801 1.872,4.752 1.279989,1.312 2.799987,1.968 4.56,1.968"
         style="font-size:48px;font-variant:normal;font-weight:bold;font-stretch:normal;text-align:center;text-anchor:middle;fill:#ffffff;font-family:Quicksand;-inkscape-font-specification:Quicksand Bold"
         id="path3072" />
      <path
         inkscape:connector-curvature="0"
         d="m 125.63237,526.23444 c 0.73599,-0.86398 1.74399,-1.55198 3.024,-2.064 1.27999,-0.54398 2.44799,-0.79998 3.504,-0.768 1.05599,2e-5 1.82399,0.24002 2.304,0.72 0.51199,0.48002 0.76799,1.07202 0.768,1.776 -1e-5,0.67202 -0.25601,1.26402 -0.768,1.776 -0.48001,0.51202 -1.07201,0.76802 -1.776,0.768 -2.97601,2e-5 -5.32801,2.41601 -7.056,7.248 l 0,9.12 c 0,0.704 -0.256,1.312 -0.768,1.824 -0.512,0.48 -1.136,0.72 -1.872,0.72 -0.704,0 -1.312,-0.24 -1.824,-0.72 -0.48,-0.512 -0.72,-1.12 -0.71999,-1.824 l 0,-18.912 c -1e-5,-0.70398 0.23999,-1.29598 0.71999,-1.776 0.512,-0.47998 1.12,-0.71998 1.824,-0.72 0.736,2e-5 1.36,0.24002 1.872,0.72 0.512,0.48002 0.768,1.07202 0.768,1.776 l 0,0.336"
         style="font-size:48px;font-variant:normal;font-weight:bold;font-stretch:normal;text-align:center;text-anchor:middle;fill:#ffffff;font-family:Quicksand;-inkscape-font-specification:Quicksand Bold"
         id="path3074" />
      <path
         inkscape:connector-curvature="0"
         d="m 160.02213,543.85044 c -2.11203,2.432 -4.78402,3.648 -8.01601,3.648 -3.23201,0 -5.968,-1.184 -8.208,-3.552 -2.24,-2.368 -3.36,-5.19999 -3.35999,-8.496 -1e-5,-3.29599 1.11999,-6.12798 3.35999,-8.496 2.272,-2.39998 4.99199,-3.59998 8.16,-3.6 3.16799,2e-5 5.85598,1.21602 8.06401,3.648 2.23997,2.40002 3.35997,5.26401 3.35999,8.592 -2e-5,3.32801 -1.12002,6.08 -3.35999,8.256 m -12.62401,-13.44 c -1.152,1.34401 -1.728,3.00801 -1.728,4.992 0,1.98401 0.576,3.68001 1.728,5.088 1.24799,1.184 2.75199,1.776 4.512,1.776 1.75999,0 3.26399,-0.592 4.512,-1.776 1.24798,-1.40799 1.87198,-3.10399 1.872,-5.088 -2e-5,-1.98399 -0.62402,-3.64799 -1.872,-4.992 -1.37601,-1.21598 -2.88001,-1.82398 -4.512,-1.824 -1.63201,2e-5 -3.13601,0.60802 -4.512,1.824"
         style="font-size:48px;font-variant:normal;font-weight:bold;font-stretch:normal;text-align:center;text-anchor:middle;fill:#ffffff;font-family:Quicksand;-inkscape-font-specification:Quicksand Bold"
         id="path3076" />
      <path
         inkscape:connector-curvature="0"
         d="m 179.31812,547.16244 c -0.54401,-0.256 -0.86401,-0.464 -0.96,-0.624 -0.064,-0.192 -0.11201,-0.304 -0.144,-0.336 -0.096,-0.032 -0.17601,-0.16 -0.23999,-0.384 l -7.77601,-18.624 c -0.288,-0.63998 -0.304,-1.26398 -0.048,-1.872 0.288,-0.63998 0.768,-1.10398 1.44,-1.392 0.576,-0.28798 1.184,-0.28798 1.82401,0 0.63999,0.28802 1.10399,0.75202 1.39199,1.392 l 5.52,13.056 5.568,-13.056 c 0.25599,-0.63998 0.68799,-1.10398 1.296,-1.392 0.63998,-0.28798 1.27998,-0.28798 1.92,0 0.67198,0.28802 1.13598,0.75202 1.392,1.392 0.28798,0.60802 0.28798,1.23202 0,1.872 l -7.872,18.624 c -0.064,0.16 -0.12801,0.272 -0.19199,0.336 -0.064,0.064 -0.12802,0.144 -0.19201,0.24 -0.064,0.064 -0.17601,0.16 -0.336,0.288 -0.12801,0.128 -0.22401,0.24 -0.288,0.336 -0.064,0.064 -0.14401,0.112 -0.24,0.144 l -0.096,0 0,0.048 c -0.12801,0 -0.25601,0.032 -0.384,0.096 l -0.096,0 c -0.12801,0.032 -0.28801,0.048 -0.48,0.048 -0.16001,0 -0.30401,-0.016 -0.432,-0.048 l -0.096,0 c -0.19201,-0.064 -0.32001,-0.096 -0.38399,-0.096 l 0,-0.048 -0.096,0"
         style="font-size:48px;font-variant:normal;font-weight:bold;font-stretch:normal;text-align:center;text-anchor:middle;fill:#ffffff;font-family:Quicksand;-inkscape-font-specification:Quicksand Bold"
         id="path3078" />
      <path
         inkscape:connector-curvature="0"
         d="m 221.07962,534.73044 c -2e-5,0.70401 -0.24002,1.28001 -0.72,1.728 -0.44802,0.41601 -1.05602,0.62401 -1.824,0.624 l -15.264,0 c 0.288,1.37601 0.832,2.43201 1.632,3.168 1.02399,1.184 2.51199,1.904 4.464,2.16 1.98399,0.224 3.69599,-0.176 5.136,-1.2 0.47999,-0.512 1.11998,-0.76799 1.92001,-0.768 0.79997,10e-6 1.35997,0.208 1.67999,0.624 0.89598,0.992 0.89598,2.032 0,3.12 -2.30402,2.112 -5.13601,3.168 -8.496,3.168 -3.32801,-0.032 -6.128,-1.216 -8.4,-3.552 -2.24,-2.336 -3.376,-5.15199 -3.408,-8.448 0.032,-3.29599 1.168,-6.11198 3.408,-8.448 2.272,-2.36798 5.00799,-3.55198 8.208,-3.552 3.19999,2e-5 5.88798,1.05602 8.064,3.168 2.20798,2.08002 3.40798,4.73601 3.6,7.968 l 0,0.24 m -11.568,-6.816 c -1.85601,0.096 -3.34401,0.67202 -4.464,1.728 -1.12,1.05601 -1.792,2.17601 -2.016,3.36 l 13.584,0 c -0.28802,-1.11999 -1.07202,-2.20799 -2.352,-3.264 -1.24801,-1.05598 -2.83201,-1.66398 -4.752,-1.824"
         style="font-size:48px;font-variant:normal;font-weight:bold;font-stretch:normal;text-align:center;text-anchor:middle;fill:#ffffff;font-family:Quicksand;-inkscape-font-specification:Quicksand Bold"
         id="path3080" />
      <path
         inkscape:connector-curvature="0"
         d="m 115.39788,607.35444 c -3.32802,0 -6.19201,-1.168 -8.592,-3.504 -2.40001,-2.368 -3.60001,-5.19999 -3.6,-8.496 -10e-6,-3.29599 1.19999,-6.11198 3.6,-8.448 2.39999,-2.33598 5.26398,-3.51998 8.592,-3.552 2.78398,2e-5 5.32797,0.88002 7.632,2.64 0.54397,0.41602 0.86397,0.99202 0.95999,1.728 0.096,0.70402 -0.08,1.32802 -0.528,1.872 -0.41602,0.54402 -0.97602,0.86402 -1.67999,0.96 -0.67203,0.096 -1.28003,-0.08 -1.824,-0.528 -1.40802,-1.02398 -3.00802,-1.53598 -4.8,-1.536 -1.76002,2e-5 -3.34402,0.68802 -4.752,2.064 -1.40801,1.37601 -2.11201,2.99201 -2.112,4.848 -1e-5,1.85601 0.68799,3.47201 2.064,4.848 1.40798,1.344 3.00798,2.016 4.8,2.016 1.79198,0 3.39198,-0.512 4.8,-1.536 0.51197,-0.41599 1.11997,-0.57599 1.824,-0.48 0.70397,0.096 1.26397,0.416 1.67999,0.96 0.44798,0.544 0.62398,1.168 0.528,1.872 -0.096,0.672 -0.41602,1.248 -0.95999,1.728 -2.36803,1.696 -4.91202,2.544 -7.632,2.544"
         style="font-size:48px;font-variant:normal;font-weight:bold;font-stretch:normal;text-align:center;text-anchor:middle;fill:#ffffff;font-family:Quicksand;-inkscape-font-specification:Quicksand Bold"
         id="path3082" />
      <path
         inkscape:connector-curvature="0"
         d="m 150.74088,603.85044 c -2.11203,2.432 -4.78402,3.648 -8.01601,3.648 -3.23201,0 -5.968,-1.184 -8.208,-3.552 -2.24,-2.368 -3.36,-5.19999 -3.35999,-8.496 -1e-5,-3.29599 1.11999,-6.12798 3.35999,-8.496 2.272,-2.39998 4.99199,-3.59998 8.16,-3.6 3.16799,2e-5 5.85598,1.21602 8.06401,3.648 2.23997,2.40002 3.35997,5.26401 3.35999,8.592 -2e-5,3.32801 -1.12002,6.08 -3.35999,8.256 m -12.62401,-13.44 c -1.152,1.34401 -1.728,3.00801 -1.728,4.992 0,1.98401 0.576,3.68001 1.728,5.088 1.24799,1.184 2.75199,1.776 4.512,1.776 1.75999,0 3.26399,-0.592 4.512,-1.776 1.24798,-1.40799 1.87198,-3.10399 1.872,-5.088 -2e-5,-1.98399 -0.62402,-3.64799 -1.872,-4.992 -1.37601,-1.21598 -2.88001,-1.82398 -4.512,-1.824 -1.63201,2e-5 -3.13601,0.60802 -4.512,1.824"
         style="font-size:48px;font-variant:normal;font-weight:bold;font-stretch:normal;text-align:center;text-anchor:middle;fill:#ffffff;font-family:Quicksand;-inkscape-font-specification:Quicksand Bold"
         id="path3084" />
      <path
         inkscape:connector-curvature="0"
         d="m 167.44487,586.23444 c 0.73599,-0.86398 1.74399,-1.55198 3.024,-2.064 1.27999,-0.54398 2.44799,-0.79998 3.504,-0.768 1.05599,2e-5 1.82399,0.24002 2.304,0.72 0.51199,0.48002 0.76799,1.07202 0.768,1.776 -1e-5,0.67202 -0.25601,1.26402 -0.768,1.776 -0.48001,0.51202 -1.07201,0.76802 -1.776,0.768 -2.97601,2e-5 -5.32801,2.41601 -7.056,7.248 l 0,9.12 c 0,0.704 -0.256,1.312 -0.768,1.824 -0.512,0.48 -1.136,0.72 -1.872,0.72 -0.704,0 -1.312,-0.24 -1.824,-0.72 -0.48,-0.512 -0.72,-1.12 -0.72,-1.824 l 0,-18.912 c 0,-0.70398 0.24,-1.29598 0.72,-1.776 0.512,-0.47998 1.12,-0.71998 1.824,-0.72 0.736,2e-5 1.36,0.24002 1.872,0.72 0.512,0.48002 0.768,1.07202 0.768,1.776 l 0,0.336"
         style="font-size:48px;font-variant:normal;font-weight:bold;font-stretch:normal;text-align:center;text-anchor:middle;fill:#ffffff;font-family:Quicksand;-inkscape-font-specification:Quicksand Bold"
         id="path3086" />
      <path
         inkscape:connector-curvature="0"
         d="m 204.95462,594.73044 c -2e-5,0.70401 -0.24002,1.28001 -0.72,1.728 -0.44802,0.41601 -1.05602,0.62401 -1.824,0.624 l -15.264,0 c 0.288,1.37601 0.832,2.43201 1.632,3.168 1.02399,1.184 2.51199,1.904 4.464,2.16 1.98399,0.224 3.69599,-0.176 5.136,-1.2 0.47999,-0.512 1.11998,-0.76799 1.92001,-0.768 0.79997,10e-6 1.35997,0.208 1.67999,0.624 0.89598,0.992 0.89598,2.032 0,3.12 -2.30402,2.112 -5.13601,3.168 -8.496,3.168 -3.32801,-0.032 -6.128,-1.216 -8.4,-3.552 -2.24,-2.336 -3.376,-5.15199 -3.408,-8.448 0.032,-3.29599 1.168,-6.11198 3.408,-8.448 2.272,-2.36798 5.00799,-3.55198 8.208,-3.552 3.19999,2e-5 5.88798,1.05602 8.064,3.168 2.20798,2.08002 3.40798,4.73601 3.6,7.968 l 0,0.24 m -11.568,-6.816 c -1.85601,0.096 -3.34401,0.67202 -4.464,1.728 -1.12,1.05601 -1.792,2.17601 -2.016,3.36 l 13.584,0 c -0.28802,-1.11999 -1.07202,-2.20799 -2.352,-3.264 -1.24801,-1.05598 -2.83201,-1.66398 -4.752,-1.824"
         style="font-size:48px;font-variant:normal;font-weight:bold;font-stretch:normal;text-align:center;text-anchor:middle;fill:#ffffff;font-family:Quicksand;-inkscape-font-specification:Quicksand Bold"
         id="path3088" />
    </g>
    <path
       style="fill:none;stroke:#0c1a29;stroke-width:5.46599626999999977;stroke-linecap:round;stroke-linejoin:round;stroke-miterlimit:4;stroke-opacity:1;stroke-dasharray:none"
       d="M 185.405,360.22824 289.37424,310.35055"
       id="path3851"
       inkscape:connector-curvature="0" />
    <path
       inkscape:connector-curvature="0"
       id="path3865"
       d="M 394.55228,360.22824 290.58304,310.35055"
       style="fill:none;stroke:#0c1a29;stroke-width:5.46599626999999977;stroke-linecap:round;stroke-linejoin:round;stroke-miterlimit:4;stroke-opacity:1;stroke-dasharray:none" />
  </g>
</svg>
