<?xml version="1.0" encoding="UTF-8" standalone="no"?>
<!-- Created with Inkscape (http://www.inkscape.org/) -->

<svg
   xmlns:dc="http://purl.org/dc/elements/1.1/"
   xmlns:cc="http://creativecommons.org/ns#"
   xmlns:rdf="http://www.w3.org/1999/02/22-rdf-syntax-ns#"
   xmlns:svg="http://www.w3.org/2000/svg"
   xmlns="http://www.w3.org/2000/svg"
   xmlns:sodipodi="http://sodipodi.sourceforge.net/DTD/sodipodi-0.dtd"
   xmlns:inkscape="http://www.inkscape.org/namespaces/inkscape"
   width="847.50653"
   height="860.84656"
   id="svg4209"
   version="1.1"
   inkscape:version="0.48.5 r10040"
   sodipodi:docname="drove-logo.svg">
  <defs
     id="defs4211" />
  <sodipodi:namedview
     id="base"
     pagecolor="#ffffff"
     bordercolor="#666666"
     borderopacity="1.0"
     inkscape:pageopacity="0.0"
     inkscape:pageshadow="2"
     inkscape:zoom="0.175"
     inkscape:cx="-1716.5567"
     inkscape:cy="1033.4554"
     inkscape:document-units="px"
     inkscape:current-layer="layer1"
     showgrid="false"
     fit-margin-top="0"
     fit-margin-left="0"
     fit-margin-right="0"
     fit-margin-bottom="0"
     inkscape:window-width="1280"
     inkscape:window-height="747"
     inkscape:window-x="0"
     inkscape:window-y="26"
     inkscape:window-maximized="1" />
  <metadata
     id="metadata4214">
    <rdf:RDF>
      <cc:Work
         rdf:about="">
        <dc:format>image/svg+xml</dc:format>
        <dc:type
           rdf:resource="http://purl.org/dc/dcmitype/StillImage" />
        <dc:title />
      </cc:Work>
    </rdf:RDF>
  </metadata>
  <g
     inkscape:label="Layer 1"
     inkscape:groupmode="layer"
     id="layer1"
     transform="translate(-325.84239,-522.11382)">
    <g
       id="g3071"
       transform="matrix(0.84027047,0,0,0.84027047,119.73262,152.14823)"
       style="fill:#090f3d;fill-opacity:1">
      <g
         style="fill:#090f3d;fill-opacity:1"
         id="g4180"
         transform="matrix(11.481054,0,0,11.481054,9244.7016,-7951.9968)">
        <g
           style="fill:#090f3d;fill-opacity:1"
           id="g4163"
           transform="matrix(1.6252391,0,0,1.6252391,375.77175,-649.85303)">
          <path
             inkscape:connector-curvature="0"
             id="path3038-6"
             d="m -688.55848,865.19111 c -0.68856,0.73768 -1.54921,1.10652 -2.58193,1.10654 -1.03281,-2e-5 -1.91804,-0.36886 -2.6557,-1.10654 -0.68856,-0.68853 -1.03282,-1.54918 -1.03277,-2.58193 -5e-5,-1.03279 0.34421,-1.91801 1.03277,-2.65571 0.73766,-0.68851 1.62289,-1.03278 2.6557,-1.03278 1.03272,0 1.89337,0.34427 2.58193,1.03278 0.73765,0.7377 1.10649,1.62292 1.10655,2.65571 -6e-5,1.03275 -0.3689,1.8934 -1.10655,2.58193"
             style="font-size:72px;font-style:normal;font-variant:normal;font-weight:500;font-stretch:normal;line-height:125%;letter-spacing:0px;word-spacing:0px;fill:#090f3d;fill-opacity:1;stroke:none;font-family:Bubble Bath;-inkscape-font-specification:Bubble Bath Medium" />
          <path
             inkscape:connector-curvature="0"
             id="path3034-8"
             d="m -694.37731,876.68134 c -0.68852,0.73768 -1.54917,1.10653 -2.58193,1.10654 -1.03278,-10e-6 -1.91802,-0.36886 -2.6557,-1.10654 -0.68853,-0.68853 -1.03279,-1.54917 -1.03278,-2.58193 -10e-6,-1.03279 0.34425,-1.91801 1.03278,-2.65571 0.73768,-0.68851 1.62292,-1.03277 2.6557,-1.03277 1.03276,0 1.89341,0.34426 2.58193,1.03277 0.73767,0.7377 1.10652,1.62292 1.10655,2.65571 -3e-5,1.03276 -0.36888,1.8934 -1.10655,2.58193"
             style="font-size:72px;font-style:normal;font-variant:normal;font-weight:500;font-stretch:normal;line-height:125%;letter-spacing:0px;word-spacing:0px;fill:#090f3d;fill-opacity:1;stroke:none;font-family:Bubble Bath;-inkscape-font-specification:Bubble Bath Medium" />
          <path
             inkscape:connector-curvature="0"
             id="path3032-0"
             d="m -681.17506,882.63849 c -0.98362,1.03277 -2.18853,1.54915 -3.61471,1.54916 -1.42623,-10e-6 -2.65572,-0.51639 -3.68847,-1.54916 -0.98362,-0.98361 -1.47542,-2.18851 -1.47539,-3.6147 -3e-5,-1.42623 0.49177,-2.65571 1.47539,-3.68848 1.03275,-0.98359 2.26224,-1.47539 3.68847,-1.47539 1.42618,0 2.63109,0.4918 3.61471,1.47539 1.03275,1.03277 1.54913,2.26225 1.54916,3.68848 -3e-5,1.42619 -0.51641,2.63109 -1.54916,3.6147"
             style="font-size:72px;font-style:normal;font-variant:normal;font-weight:500;font-stretch:normal;line-height:125%;letter-spacing:0px;word-spacing:0px;fill:#090f3d;fill-opacity:1;stroke:none;font-family:Bubble Bath;-inkscape-font-specification:Bubble Bath Medium" />
          <path
             inkscape:connector-curvature="0"
             id="path3028-4"
             d="m -671.79955,877.29003 c -0.44261,0.4426 -0.959,0.66391 -1.54916,0.66392 -0.59015,-10e-6 -1.10654,-0.22133 -1.54915,-0.66392 -0.44263,-0.44263 -0.66393,-0.95902 -0.66393,-1.54916 0,-0.59017 0.2213,-1.10656 0.66393,-1.54917 0.44261,-0.44262 0.959,-0.66392 1.54915,-0.66392 0.59016,0 1.10655,0.2213 1.54916,0.66392 0.44261,0.44261 0.66392,0.959 0.66393,1.54917 -10e-6,0.59014 -0.22132,1.10653 -0.66393,1.54916"
             style="font-size:72px;font-style:normal;font-variant:normal;font-weight:500;font-stretch:normal;line-height:125%;letter-spacing:0px;word-spacing:0px;fill:#090f3d;fill-opacity:1;stroke:none;font-family:Bubble Bath;-inkscape-font-specification:Bubble Bath Medium" />
          <path
             inkscape:connector-curvature="0"
             id="path3026-4"
             d="m -699.63066,859.23396 c -0.44266,0.44259 -0.95905,0.66392 -1.54916,0.66392 -0.5902,0 -1.10659,-0.22133 -1.54916,-0.66392 -0.44265,-0.44263 -0.66396,-0.95902 -0.66393,-1.54916 -3e-5,-0.59017 0.22128,-1.10655 0.66393,-1.54917 0.44257,-0.44262 0.95896,-0.66392 1.54916,-0.66392 0.59011,0 1.1065,0.2213 1.54916,0.66392 0.44258,0.44262 0.66389,0.959 0.66392,1.54917 -3e-5,0.59014 -0.22134,1.10653 -0.66392,1.54916"
             style="font-size:72px;font-style:normal;font-variant:normal;font-weight:500;font-stretch:normal;line-height:125%;letter-spacing:0px;word-spacing:0px;fill:#090f3d;fill-opacity:1;stroke:none;font-family:Bubble Bath;-inkscape-font-specification:Bubble Bath Medium" />
          <path
             inkscape:connector-curvature="0"
             id="path3034-8-0"
             d="m -674.88909,860.26673 c -0.68852,0.73768 -1.54917,1.10653 -2.58193,1.10654 -1.03279,-1e-5 -1.91802,-0.36886 -2.65571,-1.10654 -0.68852,-0.68853 -1.03278,-1.54917 -1.03277,-2.58193 -10e-6,-1.03279 0.34425,-1.91801 1.03277,-2.65571 0.73769,-0.68851 1.62292,-1.03277 2.65571,-1.03277 1.03276,0 1.89341,0.34426 2.58193,1.03277 0.73767,0.7377 1.10652,1.62292 1.10654,2.65571 -2e-5,1.03276 -0.36887,1.8934 -1.10654,2.58193"
             style="font-size:72px;font-style:normal;font-variant:normal;font-weight:500;font-stretch:normal;line-height:125%;letter-spacing:0px;word-spacing:0px;fill:#090f3d;fill-opacity:1;stroke:none;font-family:Bubble Bath;-inkscape-font-specification:Bubble Bath Medium" />
          <path
             inkscape:connector-curvature="0"
             id="path3028-4-3-1"
             d="m -678.74014,869.90345 c -0.44262,0.4426 -0.95901,0.66391 -1.54916,0.66392 -0.59016,-10e-6 -1.10655,-0.22132 -1.54916,-0.66392 -0.44263,-0.44263 -0.66393,-0.95902 -0.66393,-1.54916 0,-0.59017 0.2213,-1.10656 0.66393,-1.54916 0.44261,-0.44262 0.959,-0.66393 1.54916,-0.66393 0.59015,0 1.10654,0.22131 1.54916,0.66393 0.4426,0.4426 0.66391,0.95899 0.66392,1.54916 -10e-6,0.59014 -0.22132,1.10653 -0.66392,1.54916"
             style="font-size:72px;font-style:normal;font-variant:normal;font-weight:500;font-stretch:normal;line-height:125%;letter-spacing:0px;word-spacing:0px;fill:#090f3d;fill-opacity:1;stroke:none;font-family:Bubble Bath;-inkscape-font-specification:Bubble Bath Medium" />
        </g>
      </g>
      <g
         id="flowRoot3334"
         style="font-size:9px;font-style:normal;font-weight:normal;line-height:125%;letter-spacing:0px;word-spacing:0px;fill:#090f3d;fill-opacity:1;stroke:none;font-family:Sans"
         transform="matrix(3.007558,0,0,3.007558,3612.6108,-2379.4876)">
        <path
           id="path3055"
           style="font-size:72px;font-variant:normal;font-stretch:normal;fill:#090f3d;fill-opacity:1;font-family:Quicksand;-inkscape-font-specification:Quicksand"
           d="m -1062.2363,1249.0537 0,-5.112 c -1.584,2.112 -3.552,3.792 -5.904,5.04 -2.352,1.2 -4.896,1.8 -7.632,1.8 -4.752,0 -8.784,-1.704 -12.096,-5.112 -3.312,-3.456 -4.968,-7.608 -4.968,-12.456 0,-4.896 1.656,-9.072 4.968,-12.528 3.312,-3.456 7.344,-5.184 12.096,-5.184 2.736,0 5.28,0.624 7.632,1.872 2.352,1.248 4.32,2.928 5.904,5.04 l 0,-20.304 c 0,-0.48 0.168,-0.888 0.504,-1.224 0.384,-0.336 0.816,-0.504 1.296,-0.504 0.48,0 0.888,0.168 1.224,0.504 0.336,0.336 0.504,0.744 0.504,1.224 l 0,46.944 c 0,0.48 -0.168,0.888 -0.504,1.224 -0.336,0.336 -0.744,0.504 -1.224,0.504 -0.48,0 -0.912,-0.168 -1.296,-0.504 -0.336,-0.336 -0.504,-0.744 -0.504,-1.224 m -27.072,-15.84 c 0,3.888 1.32,7.2 3.96,9.936 2.688,2.736 5.856,4.104 9.504,4.104 3.696,0 6.84,-1.296 9.432,-3.888 2.64,-2.64 4.032,-5.832 4.176,-9.576 l 0,-1.152 c -0.144,-3.792 -1.536,-7.008 -4.176,-9.648 -2.592,-2.64 -5.736,-3.96 -9.432,-3.96 -3.648,0 -6.816,1.392 -9.504,4.176 -2.64,2.736 -3.96,6.072 -3.96,10.008"
           inkscape:connector-curvature="0" />
        <path
           id="path3057"
           style="font-size:72px;font-variant:normal;font-stretch:normal;fill:#090f3d;fill-opacity:1;font-family:Quicksand;-inkscape-font-specification:Quicksand"
           d="m -1042.929,1249.0537 0,-31.752 c 0,-0.48 0.168,-0.888 0.504,-1.224 0.336,-0.336 0.744,-0.504 1.224,-0.504 0.48,0 0.888,0.168 1.224,0.504 0.336,0.336 0.504,0.744 0.504,1.224 l 0,7.776 c 0.192,-0.384 0.36,-0.672 0.504,-0.864 3.696,-5.76 8.4,-8.64 14.112,-8.64 0.48,0 0.888,0.168 1.224,0.504 0.336,0.336 0.504,0.744 0.504,1.224 0,0.48 -0.168,0.888 -0.504,1.224 -0.336,0.336 -0.744,0.504 -1.224,0.504 -3.84,0 -7.248,1.92 -10.224,5.76 -1.728,2.304 -3.144,5.04 -4.248,8.208 -0.096,0.192 -0.144,0.384 -0.144,0.576 l 0,15.48 c 0,0.48 -0.168,0.888 -0.504,1.224 -0.336,0.336 -0.744,0.504 -1.224,0.504 -0.48,0 -0.888,-0.168 -1.224,-0.504 -0.336,-0.336 -0.504,-0.744 -0.504,-1.224"
           inkscape:connector-curvature="0" />
        <path
           id="path3059"
           style="font-size:72px;font-variant:normal;font-stretch:normal;fill:#090f3d;fill-opacity:1;font-family:Quicksand;-inkscape-font-specification:Quicksand"
           d="m -1008.0484,1245.5977 c -3.264,-3.504 -4.896,-7.656 -4.896,-12.456 0,-4.8 1.632,-8.928 4.896,-12.384 3.264,-3.504 7.2,-5.256 11.80803,-5.256 4.60797,0 8.54396,1.752 11.808,5.256 3.26396,3.456 4.89596,7.584 4.89599,12.384 -3e-5,4.8 -1.63203,8.952 -4.89599,12.456 -3.26404,3.456 -7.20003,5.184 -11.808,5.184 -4.60803,0 -8.54403,-1.728 -11.80803,-5.184 m 11.80803,-26.712 c -3.60002,0 -6.72003,1.392 -9.36003,4.176 -2.592,2.784 -3.888,6.144 -3.888,10.08 0,3.888 1.296,7.224 3.888,10.008 2.64,2.784 5.76001,4.176 9.36003,4.176 3.59997,0 6.69597,-1.392 9.288,-4.176 2.63996,-2.784 3.95996,-6.12 3.95999,-10.008 -3e-5,-3.936 -1.32003,-7.296 -3.95999,-10.08 -2.59203,-2.784 -5.68803,-4.176 -9.288,-4.176"
           inkscape:connector-curvature="0" />
        <path
           id="path3061"
           style="font-size:72px;font-variant:normal;font-stretch:normal;fill:#090f3d;fill-opacity:1;font-family:Quicksand;-inkscape-font-specification:Quicksand"
           d="m -952.32038,1249.4137 c -0.048,0.288 -0.21602,0.6 -0.504,0.936 -0.24001,0.288 -0.57601,0.432 -1.00799,0.432 -0.38402,0 -0.76802,-0.096 -1.152,-0.288 -0.28802,-0.288 -0.48002,-0.552 -0.57601,-0.792 l -13.24799,-31.536 c -0.19201,-0.432 -0.19201,-0.864 0,-1.296 0.47999,-1.056 1.19999,-1.368 2.16,-0.936 0.47999,0.192 0.79199,0.504 0.936,0.936 l 11.736,27.792 11.736,-27.792 c 0.14396,-0.432 0.43196,-0.744 0.86399,-0.936 0.47997,-0.192 0.93597,-0.192 1.36801,0 1.00796,0.432 1.29596,1.176 0.864,2.232 l -13.17601,31.248"
           inkscape:connector-curvature="0" />
        <path
           id="path3063"
           style="font-size:72px;font-variant:normal;font-stretch:normal;fill:#090f3d;fill-opacity:1;font-family:Quicksand;-inkscape-font-specification:Quicksand"
           d="m -892.77413,1231.9177 0,0.288 c -3e-5,0.48 -0.16803,0.864 -0.504,1.152 -0.33603,0.288 -0.74403,0.432 -1.22399,0.432 l -28.94401,0 c 0.192,3.84 1.608,7.056 4.24801,9.648 2.63998,2.592 5.78398,3.888 9.432,3.888 2.35197,0 4.53597,-0.576 6.552,-1.728 2.01597,-1.152 3.62396,-2.712 4.824,-4.68 0.57596,-0.96 1.34396,-1.152 2.30399,-0.576 0.95997,0.672 1.15197,1.488 0.576,2.448 -1.53603,2.448 -3.57603,4.392 -6.12,5.832 -2.49602,1.44 -5.20802,2.16 -8.13599,2.16 -4.75202,0 -8.80802,-1.704 -12.168,-5.112 -3.31201,-3.456 -4.96801,-7.608 -4.968,-12.456 -1e-5,-4.896 1.65599,-9.072 4.968,-12.528 3.35998,-3.456 7.34398,-5.184 11.952,-5.184 4.65597,0 8.59197,1.584 11.808,4.752 3.21596,3.12 5.01596,7.008 5.39999,11.664 m -3.744,-1.512 c -0.57603,-3.312 -2.11203,-6.048 -4.60799,-8.208 -2.49603,-2.16 -5.40003,-3.24 -8.712,-3.24 -3.26402,0 -6.14402,1.08 -8.64,3.24 -2.49602,2.112 -4.08001,4.848 -4.75201,8.208 l 26.712,0"
           inkscape:connector-curvature="0" />
        <path
           id="path3065"
           style="font-size:72px;font-variant:normal;font-stretch:normal;fill:#090f3d;fill-opacity:1;font-family:Quicksand;-inkscape-font-specification:Quicksand"
           d="m -880.29112,1249.7737 c -0.67201,-0.72 -1.00801,-1.584 -1.008,-2.592 -10e-6,-1.008 0.33599,-1.848 1.008,-2.52 0.71999,-0.72 1.58399,-1.08 2.592,-1.08 1.00798,0 1.84798,0.36 2.52,1.08 0.71998,0.672 1.07998,1.512 1.08,2.52 -2e-5,1.008 -0.36002,1.872 -1.08,2.592 -0.67202,0.672 -1.51202,1.008 -2.52,1.008 -1.00801,0 -1.87201,-0.336 -2.592,-1.008"
           inkscape:connector-curvature="0" />
        <path
           id="path3067"
           style="font-weight:bold;fill:#090f3d;fill-opacity:1;-inkscape-font-specification:Quicksand Bold"
           d="m -862.76138,1216.0057 c 0.768,-0.768 1.704,-1.152 2.808,-1.152 1.10399,0 2.01599,0.384 2.73601,1.152 0.76798,0.72 1.15198,1.656 1.15199,2.808 l 0,28.08 c -10e-6,1.104 -0.38401,2.04 -1.15199,2.808 -0.72002,0.72 -1.63202,1.08 -2.73601,1.08 -1.056,0 -1.968,-0.384 -2.736,-1.152 -0.768,-0.768 -1.152,-1.68 -1.15199,-2.736 l 0,-28.08 c -10e-6,-1.152 0.35999,-2.088 1.07999,-2.808 m 6.696,-11.736 0,1.512 c -10e-6,1.104 -0.38401,2.04 -1.15199,2.808 -0.72002,0.768 -1.63202,1.152 -2.73601,1.152 -1.056,0 -1.968,-0.384 -2.736,-1.152 -0.768,-0.768 -1.152,-1.704 -1.15199,-2.808 l 0,-1.512 c -10e-6,-1.056 0.38399,-1.968 1.15199,-2.736 0.768,-0.768 1.68,-1.152 2.736,-1.152 1.10399,0 2.01599,0.384 2.73601,1.152 0.76798,0.72 1.15198,1.632 1.15199,2.736"
           inkscape:connector-curvature="0" />
        <path
           id="path3069"
           style="font-weight:bold;fill:#090f3d;fill-opacity:1;-inkscape-font-specification:Quicksand Bold"
           d="m -816.084,1245.5257 c -3.16803,3.648 -7.17603,5.472 -12.024,5.472 -4.84802,0 -8.95201,-1.776 -12.312,-5.328 -3.36001,-3.552 -5.04001,-7.8 -5.04,-12.744 -10e-6,-4.944 1.67999,-9.192 5.04,-12.744 3.40799,-3.6 7.48798,-5.4 12.24,-5.4 4.75197,0 8.78397,1.824 12.096,5.472 3.35996,3.6 5.03996,7.896 5.04,12.888 -4e-5,4.992 -1.68004,9.12 -5.04,12.384 m -18.936,-20.16 c -1.72801,2.016 -2.59201,4.512 -2.592,7.488 -1e-5,2.976 0.86399,5.52 2.592,7.632 1.87198,1.776 4.12798,2.664 6.768,2.664 2.63998,0 4.89597,-0.888 6.768,-2.664 1.87197,-2.112 2.80797,-4.656 2.808,-7.632 -3e-5,-2.976 -0.93603,-5.472 -2.808,-7.488 -2.06403,-1.824 -4.32002,-2.736 -6.768,-2.736 -2.44802,0 -4.70402,0.912 -6.768,2.736"
           inkscape:connector-curvature="0" />
      </g>
    </g>
  </g>
</svg>
